<svg width="71" height="71" viewBox="0 0 71 71" fill="none" xmlns="http://www.w3.org/2000/svg">
<path d="M35 17.5C35 26.8822 27.2836 34.5 17.75 34.5C8.21638 34.5 0.5 26.8822 0.5 17.5C0.5 8.11782 8.21638 0.5 17.75 0.5C27.2836 0.5 35 8.11782 35 17.5Z" stroke="black"/>
<path d="M70.5 18.5C70.5 27.8822 62.7836 35.5 53.25 35.5C43.7164 35.5 36 27.8822 36 18.5C36 9.11782 43.7164 1.5 53.25 1.5C62.7836 1.5 70.5 9.11782 70.5 18.5Z" stroke="black"/>
<path d="M35 53.5C35 62.8822 27.2836 70.5 17.75 70.5C8.21638 70.5 0.5 62.8822 0.5 53.5C0.5 44.1178 8.21638 36.5 17.75 36.5C27.2836 36.5 35 44.1178 35 53.5Z" stroke="black"/>
<path d="M70.5 52.5C70.5 61.8822 62.7836 69.5 53.25 69.5C43.7164 69.5 36 61.8822 36 52.5C36 43.1178 43.7164 35.5 53.25 35.5C62.7836 35.5 70.5 43.1178 70.5 52.5Z" stroke="black"/>
</svg>
